700 0 1 0           
30 Autodesk Translation Framework 20 ASM 231.2.0.65535 NT 24 Tue Oct 14 13:58:47 2025 
1 9.999999999999999547e-07 1.000000000000000036e-10 
body $1 -1 $-1 $2 $-1 $3 #
rgb_color-st-attrib $-1 -1 $4 $-1 $0 0.627450980392156854 0.627450980392156854 0.627450980392156854 #
lump $-1 -1 $-1 $-1 $5 $0 #
transform $-1 -1 1 0 0 0 1 0 0 0 1 0 0 0 1 no_rotate no_reflect no_shear #
ATTRIB_CUSTOM-attrib $-1 -1 $-1 $1 $0 @20 Timestamp_attrib_def 1 1760446669698802 #
shell $-1 -1 $-1 $-1 $-1 $6 $-1 $2 #
face $7 -1 $-1 $8 $9 $5 $-1 $10 reversed single #
DXID-attrib $-1 -1 $-1 $-1 $6 @10 ASM ENTITY @1 0 #
face $11 -1 $-1 $12 $13 $5 $-1 $14 forward single #
loop $-1 -1 $-1 $-1 $15 $6 #
plane-surface $-1 -1 $-1 10.74992030534918186 1.144400795462959862e-06 99.2492747802499764 1 0 0 0 0.9999926929999998215 2.220429824451030319e-16 forward_v I I I I #
DXID-attrib $-1 -1 $-1 $-1 $8 @10 ASM ENTITY @1 1 #
face $16 -1 $-1 $17 $18 $5 $-1 $19 forward single #
loop $-1 -1 $-1 $-1 $20 $8 #
plane-surface $-1 -1 $-1 -10.74992259415081541 1.144400795462959862e-06 99.2492747802499764 1 0 0 0 0.9999926929999998215 2.220429824451030319e-16 forward_v I I I I #
coedge $-1 -1 $-1 $21 $22 $23 $24 reversed $9 $-1 #
DXID-attrib $-1 -1 $-1 $-1 $12 @10 ASM ENTITY @1 2 #
face $25 -1 $-1 $26 $27 $5 $-1 $28 reversed single #
loop $-1 -1 $-1 $29 $30 $12 #
cone-surface $-1 -1 $-1 -8.020314134417749368e-07 8.905274931876356706e-07 45.72050084856618923 9.475465027586723872e-10 1.243776571729419069e-10 -1 0 -16.15992336648011118 -2.009933408417076572e-09 1 I I 0.03915360254990103012 0.9992332037154111335 0.9999926929999998215 forward I I I I #
coedge $-1 -1 $-1 $31 $32 $33 $34 reversed $13 $-1 #
coedge $-1 -1 $-1 $35 $15 $36 $37 reversed $9 $-1 #
coedge $-1 -1 $-1 $15 $35 $38 $39 reversed $9 $-1 #
coedge $-1 -1 $-1 $40 $41 $15 $24 forward $42 $-1 #
edge $-1 -1 $-1 $43 -2.149999618530273438 $44 2.149999618530273438 $23 $45 forward @7 unknown #
DXID-attrib $-1 -1 $-1 $-1 $17 @10 ASM ENTITY @1 3 #
face $46 -1 $-1 $47 $48 $5 $-1 $49 reversed single #
loop $-1 -1 $-1 $-1 $50 $17 #
cone-surface $-1 -1 $-1 -7.603223747342642724 6.999949153872986329 52.79961342746611308 -0.9999999999999913403 1.325795138149366656e-07 2.94385657661903364e-23 0 -1.554300877115721273e-15 6.999948850999998307 1 I I 0 1 0.9999926929999998215 forward I I I I #
loop $-1 -1 $-1 $51 $52 $12 #
coedge $-1 -1 $-1 $30 $30 $53 $54 reversed $18 $-1 #
coedge $-1 -1 $-1 $55 $20 $56 $57 reversed $13 $-1 #
coedge $-1 -1 $-1 $20 $55 $58 $59 reversed $13 $-1 #
coedge $-1 -1 $-1 $60 $61 $20 $34 forward $62 $-1 #
edge $-1 -1 $-1 $63 -0.75 $64 0.75 $33 $65 forward @7 unknown #
coedge $-1 -1 $-1 $22 $21 $66 $67 reversed $9 $-1 #
coedge $-1 -1 $-1 $68 $69 $21 $37 forward $70 $-1 #
edge $-1 -1 $-1 $71 -0.75 $43 0.75 $36 $72 forward @7 unknown #
coedge $-1 -1 $-1 $61 $60 $22 $39 forward $62 $-1 #
edge $-1 -1 $-1 $44 -0.75 $73 0.75 $38 $74 forward @7 unknown #
coedge $-1 -1 $-1 $58 $23 $60 $75 reversed $42 $-1 #
coedge $-1 -1 $-1 $23 $58 $68 $76 reversed $42 $-1 #
loop $-1 -1 $-1 $-1 $58 $77 #
vertex $-1 -1 $-1 $24 $78 #
vertex $-1 -1 $-1 $24 $79 #
straight-curve $-1 -1 $-1 10.74992030534918186 1.144400795462959862e-06 98.49928026049997243 0 0.9999926929999998215 2.220429824451030319e-16 F -2.149999618530273438 F 2.149999618530273438 #
DXID-attrib $-1 -1 $-1 $-1 $26 @10 ASM ENTITY @1 4 #
face $80 -1 $-1 $81 $82 $5 $-1 $83 forward single #
loop $-1 -1 $-1 $-1 $84 $26 #
cone-surface $-1 -1 $-1 -13.27605626949880957 -6.999948618452166649 52.79961342746610597 -0.9999999999999977796 -6.86840302977512561e-08 -1.52509183721230552e-23 0 -1.554300877115721273e-15 6.999948850999998307 1 I I 0 1 0.9999926929999998215 forward I I I I #
coedge $-1 -1 $-1 $85 $86 $87 $88 reversed $27 $-1 #
loop $-1 -1 $-1 $-1 $89 $12 #
coedge $-1 -1 $-1 $90 $91 $86 $92 reversed $29 $-1 #
coedge $-1 -1 $-1 $53 $53 $30 $54 forward $93 $-1 #
edge $-1 -1 $-1 $94 1.530519520725318161 $94 7.813704827904904171 $53 $95 forward @7 unknown #
coedge $-1 -1 $-1 $32 $31 $96 $97 reversed $13 $-1 #
coedge $-1 -1 $-1 $98 $99 $31 $57 forward $100 $-1 #
edge $-1 -1 $-1 $101 -2.149999502726963385 $63 2.14999973433358349 $56 $102 forward @7 unknown #
coedge $-1 -1 $-1 $41 $40 $32 $59 forward $42 $-1 #
edge $-1 -1 $-1 $64 -2.149999618530273438 $103 2.149999618530273438 $58 $104 forward @7 unknown #
coedge $-1 -1 $-1 $38 $33 $40 $75 forward $62 $-1 #
coedge $-1 -1 $-1 $33 $38 $98 $105 reversed $62 $-1 #
loop $-1 -1 $-1 $-1 $60 $106 #
vertex $-1 -1 $-1 $34 $107 #
vertex $-1 -1 $-1 $34 $108 #
straight-curve $-1 -1 $-1 -10.74992259415081541 2.149985052883855996 99.2492747802499764 0 2.220429824451030319e-16 -0.9999926929999998215 F -0.75 F 0.75 #
coedge $-1 -1 $-1 $99 $98 $35 $67 forward $100 $-1 #
edge $-1 -1 $-1 $73 -2.14999973433358349 $71 2.149999502726963385 $66 $109 forward @7 unknown #
coedge $-1 -1 $-1 $96 $36 $41 $76 forward $70 $-1 #
coedge $-1 -1 $-1 $36 $96 $99 $110 reversed $70 $-1 #
loop $-1 -1 $-1 $-1 $96 $111 #
vertex $-1 -1 $-1 $37 $112 #
straight-curve $-1 -1 $-1 10.74992030534918186 -2.149982764082265074 99.2492747802499764 0 2.220429824451030319e-16 -0.9999926929999998215 F -0.75 F 0.75 #
vertex $-1 -1 $-1 $67 $113 #
straight-curve $-1 -1 $-1 10.74992030534918186 2.149985052883855996 99.2492747802499764 0 -2.220429824451030319e-16 0.9999926929999998215 F -0.75 F 0.75 #
edge $-1 -1 $-1 $64 -10.75 $44 10.75 $60 $114 forward @7 unknown #
edge $-1 -1 $-1 $43 -10.75 $103 10.75 $68 $115 forward @7 unknown #
face $116 -1 $-1 $111 $42 $5 $-1 $117 forward single #
point $-1 -1 $-1 10.74992030534918186 -2.149982764082265074 98.49928026049997243 #
point $-1 -1 $-1 10.74992030534918186 2.149985052883855996 98.49928026049997243 #
DXID-attrib $-1 -1 $-1 $-1 $47 @10 ASM ENTITY @1 5 #
face $118 -1 $-1 $119 $120 $5 $-1 $121 reversed single #
loop $-1 -1 $-1 $-1 $122 $47 #
cone-surface $-1 -1 $-1 -1.237735003503850398e-06 8.664507082485096269e-07 12.79990570746611667 1.699162738595979256e-17 2.223391814105465845e-16 -1 0 -14.99989010127258204 -3.335063286365106838e-15 1 I I 0 1 0.9999926929999998215 forward I I I I #
coedge $-1 -1 $-1 $123 $124 $125 $126 forward $48 $-1 #
coedge $-1 -1 $-1 $127 $50 $128 $129 reversed $27 $-1 #
coedge $-1 -1 $-1 $50 $127 $52 $92 forward $27 $-1 #
coedge $-1 -1 $-1 $130 $131 $50 $88 forward $132 $-1 #
edge $-1 -1 $-1 $133 -7.603278160095417348 $134 6.958544506825335318 $87 $135 forward @7 tangent #
coedge $-1 -1 $-1 $89 $89 $136 $137 reversed $51 $-1 #
coedge $-1 -1 $-1 $125 $52 $138 $139 reversed $29 $-1 #
coedge $-1 -1 $-1 $52 $125 $130 $140 reversed $29 $-1 #
edge $-1 -1 $-1 $141 -36.15308716282547863 $134 -10.77538246772066799 $86 $142 forward @7 unknown #
loop $-1 -1 $-1 $143 $53 $144 #
vertex $-1 -1 $-1 $54 $145 #
ellipse-curve $-1 -1 $-1 -7.701897356689156644e-07 8.947071237085506724e-07 12.79990570746611667 0 2.220446049250312588e-16 -1 -6.47882343209900549e-10 -17.44987239246137989 -3.874650021376297179e-15 1 I I #
coedge $-1 -1 $-1 $69 $68 $55 $97 forward $70 $-1 #
edge $-1 -1 $-1 $103 -0.75 $101 0.75 $96 $146 forward @7 unknown #
coedge $-1 -1 $-1 $66 $56 $61 $105 forward $100 $-1 #
coedge $-1 -1 $-1 $56 $66 $69 $110 forward $100 $-1 #
loop $-1 -1 $-1 $-1 $98 $147 #
vertex $-1 -1 $-1 $57 $148 #
straight-curve $-1 -1 $-1 -10.74992259415081541 1.028598331585403918e-06 99.99926929999999459 0 0.9999926929999998215 2.220429824451030319e-16 F -2.149999502726963385 F 2.14999973433358349 #
vertex $-1 -1 $-1 $97 $149 #
straight-curve $-1 -1 $-1 -10.74992259415081541 1.144400795462959862e-06 98.49928026049997243 0 -0.9999926929999998215 -2.220429824451030319e-16 F -2.149999618530273438 F 2.149999618530273438 #
edge $-1 -1 $-1 $63 -10.7500002384185791 $73 10.7499997615814209 $98 $150 forward @7 unknown #
face $151 -1 $-1 $152 $62 $5 $-1 $153 forward single #
point $-1 -1 $-1 -10.74992259415081541 2.149985052883855996 99.99926929999999459 #
point $-1 -1 $-1 -10.74992259415081541 2.149985052883855996 98.49928026049997243 #
straight-curve $-1 -1 $-1 10.74992030534918186 1.028598331585403918e-06 99.99926929999999459 0 -0.9999926929999998215 -2.220429824451030319e-16 F -2.14999973433358349 F 2.149999502726963385 #
edge $-1 -1 $-1 $71 -10.7499997615814209 $101 10.7500002384185791 $99 $154 forward @7 unknown #
face $155 -1 $-1 $106 $70 $5 $-1 $156 reversed single #
point $-1 -1 $-1 10.74992030534918186 -2.149982764082265074 99.99926929999999459 #
point $-1 -1 $-1 10.74992030534918186 2.149985052883855996 99.99926929999999459 #
straight-curve $-1 -1 $-1 -1.144400816779086293e-06 2.149985052883855996 98.49928026049997243 0.9999926929999998215 0 0 F -10.75 F 10.75 #
straight-curve $-1 -1 $-1 -1.144400816779086293e-06 -2.149982764082265074 98.49928026049997243 -0.9999926929999998215 0 0 F -10.75 F 10.75 #
DXID-attrib $-1 -1 $-1 $-1 $77 @10 ASM ENTITY @2 13 #
plane-surface $-1 -1 $-1 -1.144400816779086293e-06 1.144400795462959862e-06 98.49928026049997243 0 -2.220446049250312588e-16 1 0 -0.9999926929999998215 -2.220429824451030319e-16 forward_v I I I I #
DXID-attrib $-1 -1 $-1 $-1 $81 @10 ASM ENTITY @1 6 #
face $157 -1 $-1 $158 $159 $5 $-1 $160 forward single #
loop $-1 -1 $-1 $-1 $161 $81 #
cone-surface $-1 -1 $-1 -8.333509065156145102e-07 -14.99988920290481786 12.79990570746611311 1.098470584750473445e-17 7.832008114680096373e-16 -1 0 -2.999977919009411576 -2.349585140554281747e-15 1 I I 0 1 0.9999926929999998215 forward I I I I #
coedge $-1 -1 $-1 $162 $163 $164 $165 reversed $82 $-1 #
coedge $-1 -1 $-1 $166 $84 $167 $168 reversed $48 $-1 #
coedge $-1 -1 $-1 $84 $166 $169 $170 reversed $48 $-1 #
coedge $-1 -1 $-1 $91 $90 $84 $126 reversed $29 $-1 #
edge $-1 -1 $-1 $171 -13.06950375636661299 $172 12.30820314181416819 $84 $173 forward @7 unknown #
coedge $-1 -1 $-1 $86 $85 $174 $175 reversed $27 $-1 #
coedge $-1 -1 $-1 $176 $177 $85 $129 forward $178 $-1 #
edge $-1 -1 $-1 $179 -1.57079632679489678 $133 1.570796326794896336 $128 $180 forward @7 unknown #
coedge $-1 -1 $-1 $169 $87 $91 $140 forward $132 $-1 #
coedge $-1 -1 $-1 $87 $181 $176 $182 forward $132 $-1 #
loop $-1 -1 $-1 $-1 $169 $183 #
vertex $-1 -1 $-1 $88 $184 #
vertex $-1 -1 $-1 $92 $185 #
straight-curve $-1 -1 $-1 -7.603223747342642724 6.999949153872988106 45.79966457646611389 -0.9999926929999912728 1.325785450564292318e-07 2.943835065859027963e-23 F -7.603278160095417348 F 6.958544506825335318 #
coedge $-1 -1 $-1 $136 $136 $89 $137 forward $186 $-1 #
edge $-1 -1 $-1 $187 -1.530519468807647998 $187 4.752665838371938456 $136 $188 forward @7 unknown #
coedge $-1 -1 $-1 $174 $167 $90 $139 forward $189 $-1 #
edge $-1 -1 $-1 $172 1.105735226097124269 $141 2.035857395370651357 $138 $190 forward @7 unknown #
edge $-1 -1 $-1 $134 -2.018892431300869816 $171 -1.122700193954084158 $130 $191 forward @7 unknown #
vertex $-1 -1 $-1 $92 $192 #
intcurve-curve $-1 -1 $-1 reversed { surfintcur full nubs 3 periodic 33 
	0 3 1.335422590549252497 2 2.670845181098504995 2 4.006267771647757492 2 5.341690362197009989 2 
	6.733604096164054198 2 8.125517830131098407 2 9.517431564098142616 2 10.9093452980651886 2 12.53520412191190303 2 
	14.16106294575861568 2 15.78692176960532834 2 17.41278059345204099 2 19.02080670869325019 2 20.62883282393445938 2 
	22.23685893917566858 2 23.84488505441687778 2 25.26306362785451753 2 26.68124220129215729 2 28.09942077472979705 2 
	29.5175993481674368 2 31.21013903180206839 2 32.90267871543669997 2 34.59521839907132801 2 36.28775808270596315 2 
	37.6549199283951026 2 39.02208177408424206 2 40.38924361977338151 2 41.75640546546251386 2 43.06080904288732825 2 
	44.36521262031214974 2 45.66961619773696412 2 46.97401977516177851 3 
	-15.8825387151253512 1.400540478025694592e-06 52.79961345413696705 
	-15.89996745579998638 1.401156432364372566e-06 52.35481717311447625 
	-15.91818220230872072 0.04308224806055949152 51.89503293690979291 
	-15.95247163148668079 0.2242915555309653031 50.98117248405628033 
	-15.96851007087651375 0.3623753649569417812 50.52708605456736279 
	-15.99017713483796044 0.7272704990073232123 49.65711908694088805 
	-15.99569058264391685 0.9543831359158512218 49.24052483570115157 
	-15.98600932201028613 1.478922224949054121 48.47130626282642396 
	-15.97061056752032293 1.776380486902493283 48.11870621482601962 
	-15.91079271762811587 2.42333621068709526 47.48282661669706783 
	-15.86334829054237439 2.79553940572220494 47.18260253948149341 
	-15.72160241283510729 3.598344023456444774 46.66308696275343948 
	-15.62709064850960239 4.028887636218167145 46.44376353573662897 
	-15.38614546286122042 4.913010462680471591 46.10120162601247529 
	-15.23929151934553161 5.367601511620591737 45.97749975728646632 
	-14.90006809976082991 6.263369784283760566 45.82370872184144162 
	-14.70766363537005006 6.704516464370669837 45.79351884647480375 
	-14.26382856034857127 7.60708842986232181 45.80910581324548758 
	-13.99149743197137141 8.093444097148447369 45.86879729793294302 
	-13.39344221835184534 9.033759494616276697 46.08429063693031935 
	-13.06773637346283756 9.487765069472539281 46.23994303925387328 
	-12.3851298824125422 10.33920877904691515 46.62969850662989302 
	-12.02793573958881623 10.73712495198604167 46.86390441933524897 
	-11.31030398684900007 11.4618180487226855 47.38751121632685681 
	-10.94992918616196853 11.78865224398135503 47.6769189145940544 
	-10.26286181508567097 12.36057807816829524 48.27926731659709247 
	-9.907688158154954294 12.62947027591596338 48.61624624858939114 
	-9.2151384728013781 13.10809001349672975 49.35248658172467628 
	-8.877656769035318973 13.31804689488001792 49.75149944418525649 
	-8.275274781155845361 13.66156327781362734 50.60137417553703898 
	-8.010679051558271979 13.79529400829759567 51.05119034911811582 
	-7.622011946090476719 13.97129798314847804 52.00337891753559205 
	-7.498158827672853022 14.0142283603747515 52.50571880974277406 
	-7.479526569719734397 13.97940424558504802 53.51367284663784574 
	-7.561589501942735936 13.9161208430838812 53.96653689651506625 
	-7.854396329335031623 13.71408572118028424 54.82828587406002896 
	-8.064328924248428621 13.57516687173741587 55.23740706847199533 
	-8.554534951177172886 13.23581085909213861 56.00747160709666872 
	-8.834697704192906897 13.03514418379035433 56.36836647378692788 
	-9.416329210602645716 12.58888643955708098 57.03321213942898282 
	-9.717843995279158875 12.34313124810606865 57.33701248675358642 
	-10.35797596944974686 11.78288358731239605 57.92989707267516764 
	-10.7244670736112333 11.43690610941138708 58.23405846751322201 
	-11.45742060984612998 10.67131952435257425 58.77797604538753262 
	-11.8238157706204543 10.25163999413206284 59.01772375176318519 
	-12.52567814056198259 9.355550115995947991 59.40941906420924568 
	-12.86146084979175974 8.878619609254185363 59.56144703461927747 
	-13.47946587499629345 7.893513269148854761 59.76045664870481744 
	-13.76168003936022011 7.3852964652286337 59.80726075857297985 
	-14.21168176473695688 6.470184153007125794 59.79145722628148008 
	-14.40265908857478117 6.038608671176620923 59.74754197448481818 
	-14.74582115459751464 5.165264179904590414 59.569533362466764 
	-14.89805133790307679 4.723531740530433787 59.43534819971766581 
	-15.15758247097041256 3.866662625406371401 59.0763616708199919 
	-15.26529911862199107 3.45066473069966051 58.85112847566267646 
	-15.44076195101449755 2.6767526406502129 58.32484866670893098 
	-15.50871918439334074 2.318902857629908887 58.02377771991998401 
	-15.61332029269525279 1.699721729230516676 57.39235801869991604 
	-15.65440646228158528 1.415258680401070723 57.0442594632862523 
	-15.72142951592037008 0.9133206170827956605 56.28655184677878509 
	-15.7475660246355087 0.6958279095603383535 55.87697217765327906 
	-15.79258938435717141 0.3464920637486701427 55.02303228568086979 
	-15.81164005439876874 0.2143663090706715291 54.578000527954174 
	-15.8480880647239033 0.0411062942809327786 53.68352566393235747 
	-15.86551480685324833 1.399938833913149033e-06 53.2340780680329857 
	-15.8825387151253512 1.400540478025694592e-06 52.79961345413696705 
	0.0003642932805278555736 
	
	cone -7.603223747342642724 6.999949153872986329 52.79961342746611308 -0.9999999999999913403 1.325795138149366656e-07 2.94385657661903364e-23 0 -1.554300877115721273e-15 6.999948850999998307 1 I I 0 1 0.9999926929999998215 forward I I I I 
	cone -8.020314134417749368e-07 8.905274931876356706e-07 45.72050084856618923 9.475465027586723872e-10 1.243776571729419069e-10 -1 0 -16.15992336648011118 -2.009933408417076572e-09 1 I I 0.03915360254990103012 0.9992332037154111335 0.9999926929999998215 forward I I I I 
	nullbs 
	nullbs 
	I I 
	0 
	0 
	0 
	} F -36.15308716282547863 F -10.77538246772066799 #
loop $-1 -1 $-1 $-1 $193 $144 #
face $194 -1 $-1 $195 $93 $5 $-1 $196 reversed single #
point $-1 -1 $-1 -17.43572130029700418 -0.7026342233888572819 12.79990570746611667 #
straight-curve $-1 -1 $-1 -10.74992259415081541 -2.149982764082265074 99.2492747802499764 0 -2.220429824451030319e-16 0.9999926929999998215 F -0.75 F 0.75 #
face $197 -1 $-1 $198 $199 $5 $-1 $200 reversed single #
point $-1 -1 $-1 -10.74992259415081541 -2.149982764082265074 99.99926929999999459 #
point $-1 -1 $-1 -10.74992259415081541 -2.149982764082265074 98.49928026049997243 #
straight-curve $-1 -1 $-1 -9.059839798020814362e-07 2.149985052883855996 99.99926929999999459 0.9999926929999998215 0 0 F -10.7500002384185791 F 10.7499997615814209 #
DXID-attrib $-1 -1 $-1 $-1 $106 @10 ASM ENTITY @2 15 #
face $201 -1 $-1 $202 $203 $5 $-1 $204 reversed single #
plane-surface $-1 -1 $-1 -1.144400816779086293e-06 2.149985052883855996 99.2492747802499764 0 -1 -2.220446049250312588e-16 0.9999926929999998215 0 0 forward_v I I I I #
straight-curve $-1 -1 $-1 -9.059839798020814362e-07 -2.149982764082265074 99.99926929999999459 -0.9999926929999998215 0 0 F -10.7499997615814209 F 10.7500002384185791 #
DXID-attrib $-1 -1 $-1 $-1 $111 @10 ASM ENTITY @2 14 #
plane-surface $-1 -1 $-1 -1.144400816779086293e-06 -2.149982764082265074 99.2492747802499764 0 -1 -2.220446049250312588e-16 0.9999926929999998215 0 0 forward_v I I I I #
DXID-attrib $-1 -1 $-1 $-1 $119 @10 ASM ENTITY @1 7 #
face $205 -1 $-1 $206 $207 $5 $-1 $208 reversed single #
loop $-1 -1 $-1 $-1 $209 $119 #
cone-surface $-1 -1 $-1 -7.370238468390694543e-07 8.664506798270078255e-07 12.79990570746611667 0 2.220446049250312588e-16 -1 0 -14.99989026389931723 -3.330644707566346714e-15 1 I I 0 1 0.9999926929999998215 forward I I I I #
coedge $-1 -1 $-1 $210 $164 $211 $212 reversed $120 $-1 #
coedge $-1 -1 $-1 $213 $122 $214 $215 reversed $82 $-1 #
coedge $-1 -1 $-1 $122 $213 $216 $217 reversed $82 $-1 #
coedge $-1 -1 $-1 $161 $218 $122 $165 forward $120 $-1 #
edge $-1 -1 $-1 $219 1.776356839427251596e-15 $220 12.79999923706055043 $164 $221 forward @7 unknown #
coedge $-1 -1 $-1 $124 $123 $222 $223 reversed $48 $-1 #
coedge $-1 -1 $-1 $138 $224 $123 $168 forward $189 $-1 #
edge $-1 -1 $-1 $225 -13.27615213394166993 $172 0.6745161587627928057 $167 $226 forward @7 tangent #
coedge $-1 -1 $-1 $227 $130 $124 $170 forward $132 $-1 #
edge $-1 -1 $-1 $171 -1.285670335154895039 $228 13.27615213394166993 $169 $229 forward @7 tangent #
vertex $-1 -1 $-1 $126 $230 #
vertex $-1 -1 $-1 $139 $231 #
intcurve-curve $-1 -1 $-1 reversed { surfintcur full nubs 3 periodic 33 
	0 3 1.608026281882620978 2 3.216052563765241956 2 4.824078845647862934 2 6.432105127530483912 2 
	8.0579640697362791 2 9.683823011942074288 2 11.30968195414786948 2 12.93554089635366644 2 14.32745466172273296 2 
	15.71936842709180127 2 17.11128219246086957 2 18.50319595782993787 2 19.83861854917127232 2 21.17404114051260677 2 
	22.50946373185394123 2 23.84488632319527923 2 25.14928989726517727 2 26.45369347133507176 2 27.75809704540496625 2 
	29.06250061947486074 2 30.4296625044849236 2 31.79682438949498646 2 33.16398627450504932 2 34.53114815951511218 2 
	36.22368801705422925 2 37.91622787459333921 2 39.60876773213244917 2 41.30130758967156623 2 42.71948625509875086 2 
	44.13766492052593549 2 45.55584358595312011 2 46.97402225138030474 3 
	-7.48825664478799613 -13.99572304722154037 53.04131261310956802 
	-7.498157215674037701 -14.01422744485167016 52.50571877560926737 
	-7.622010395981131836 -13.97129705205129291 52.00337887699645734 
	-8.010677644036796607 -13.7952930483523506 51.05119031554263387 
	-8.275273456858437626 -13.66156230290215667 50.60137415666234517 
	-8.877655612422950426 -13.31804588775261067 49.75149944435752047 
	-9.215137399771238691 -13.10808898957130886 49.35248658973877411 
	-9.907687242627789104 -12.6294692153370427 48.61624626494502621 
	-10.26286097369160366 -12.36057699769054885 48.27926733371725021 
	-10.94992847036084171 -11.78865112889927147 47.67691893781847057 
	-11.31030332742426658 -11.46181691931607105 47.38751124363848533 
	-12.02793518733139422 -10.73712379030700248 46.8639044488188361 
	-12.3851293809762808 -10.33920759942081347 46.62969853422916344 
	-13.06773596675040139 -9.487763849785746828 46.23994305994568066 
	-13.39344185555660083 -9.033758252856728177 46.08429065263257485 
	-13.99149714928193511 -8.093442807053040866 45.8687973043235715 
	-14.26382831385302019 -7.607087113504189091 45.8091058153241093 
	-14.70766343813251709 -6.704515116647606021 45.7935188457421134 
	-14.9000679202368751 -6.263368431493683275 45.82370871808165447 
	-15.23929137402360823 -5.367600145442844806 45.97749974640393589 
	-15.3861453340191936 -4.913009088186433004 46.10120161107812464 
	-15.62709054969168676 -4.028886243231715625 46.44376351478846487 
	-15.7216023276002943 -3.59834262026510876 46.66308693987677003 
	-15.86334822876237993 -2.795537982263940791 47.18260251707850728 
	-15.91079266573421513 -2.423334777178382193 47.48282659670301342 
	-15.97061053083184845 -1.776379042617034276 48.11870619777942437 
	-15.98600929182544306 -1.478920778932057756 48.47130624415868283 
	-15.99569056372068943 -0.954381686967697318 49.24052481476656595 
	-15.9901771206808121 -0.7272690488559806488 49.65711906535488396 
	-15.96851006431305464 -0.3623739129955794169 50.52708603231518225 
	-15.95247162775802252 -0.22429010293946261 50.98117246180311213 
	-15.91818220228768332 -0.04308079454374511008 51.89503291495115889 
	-15.89996745664887179 5.266193414650509245e-08 52.35481715144989323 
	-15.86551480773558254 5.436630410556424337e-08 53.23407804551478506 
	-15.84808806480599586 -0.04110483950838895312 53.68352564029655127 
	-15.8116400510310271 -0.2143648528689524879 54.57800050215077192 
	-15.79258937834211274 -0.3464906065895656528 55.023032258826575 
	-15.74756601165174885 -0.6958264501607634989 55.87697214877138663 
	-15.72142949861076566 -0.9133191564107935312 56.28655181691665632 
	-15.65440643504642537 -1.415257216959837638 57.04425943147547429 
	-15.61332025985784178 -1.69972026429499623 57.3923579859162345 
	-15.50871913775723243 -2.318901399155977483 58.02377769542201236 
	-15.44076189495548412 -2.676751191793055984 58.32484864925888246 
	-15.2652990402215849 -3.450663302356388851 58.85112846813026266 
	-15.15758237963288124 -3.866661207948948409 59.07636166616075002 
	-14.89805121752397277 -4.723530343970709033 59.43534819804501979 
	-14.7458210180700604 -5.165262793390136054 59.56953336094817075 
	-14.40265891773956852 -6.038607302183355507 59.7475419730342594 
	-14.21168157574521906 -6.470182791481525086 59.79145722478577341 
	-13.76167979139817099 -7.385295153862680095 59.80726076024470217 
	-13.47946558019727448 -7.893511999480130825 59.76045664614539277 
	-12.86146045004510796 -8.878618415689166099 59.56144701731687263 
	-12.5256776827008629 -9.355548956839278674 59.40941903641424204 
	-11.82381518695656375 -10.25163889585114774 59.01772370224563247 
	-11.45741995845522254 -10.67131845251509326 58.77797598467401485 
	-10.72446627992348844 -11.43690508287368246 58.23405838795966361 
	-10.35797510114639408 -11.78288257963096264 57.9298969855271082 
	-9.71784299902699189 -12.34313025973231781 57.33701240098889684 
	-9.416328156496739155 -12.58888545485628541 57.03321206343008498 
	-8.834696525584394777 -13.03514320783446578 56.36836642466134606 
	-8.554533705706543145 -13.23580988823318449 56.00747157529882259 
	-8.064327543669223886 -13.57516591411153151 55.23740707333429611 
	-7.854394880748821528 -13.71408477136770543 54.82828590038422334 
	-7.561587939133531222 -13.91611991155633099 53.96653694630009568 
	-7.479524960135618628 -13.97940332519255158 53.51367289865659416 
	-7.48825664478799613 -13.99572304722154037 53.04131261310956802 
	0.0003642943810628961141 
	
	cone -13.27605626949880957 -6.999948618452166649 52.79961342746610597 -0.9999999999999977796 -6.86840302977512561e-08 -1.52509183721230552e-23 0 -1.554300877115721273e-15 6.999948850999998307 1 I I 0 1 0.9999926929999998215 forward I I I I 
	cone -8.020314134417749368e-07 8.905274931876356706e-07 45.72050084856618923 9.475465027586723872e-10 1.243776571729419069e-10 -1 0 -16.15992336648011118 -2.009933408417076572e-09 1 I I 0.03915360254990103012 0.9992332037154111335 0.9999926929999998215 forward I I I I 
	nullbs 
	nullbs 
	I I 
	0 
	0 
	0 
	} F -13.06950375636661299 F 12.30820314181416819 #
coedge $-1 -1 $-1 $232 $138 $127 $175 forward $189 $-1 #
edge $-1 -1 $-1 $141 -6.347390356943497736 $179 7.603278160095403138 $174 $233 forward @7 tangent #
coedge $-1 -1 $-1 $234 $128 $131 $182 reversed $178 $-1 #
coedge $-1 -1 $-1 $128 $234 $232 $235 reversed $178 $-1 #
loop $-1 -1 $-1 $-1 $176 $236 #
vertex $-1 -1 $-1 $129 $237 #
ellipse-curve $-1 -1 $-1 -1.144400816779086293e-06 6.999948145841430325 52.79961342746611308 -1 0 0 0 6.999948851000061367 1.554300877115735275e-15 0.9999999999999910072 F -1.57079632679489678 F 1.570796326794896336 #
coedge $-1 -1 $-1 $131 $238 $239 $240 forward $132 $-1 #
edge $-1 -1 $-1 $241 -2.824911980401902056 $133 1.675086170025211985 $131 $242 forward @7 unknown #
face $243 -1 $-1 $244 $132 $5 $-1 $245 reversed single #
point $-1 -1 $-1 -1.144400809673710816e-06 6.999948145841433877 45.79966457646612099 #
point $-1 -1 $-1 -14.56171740808320436 6.999950076426696199 45.7996645764661352 #
loop $-1 -1 $-1 $246 $136 $198 #
vertex $-1 -1 $-1 $137 $247 #
ellipse-curve $-1 -1 $-1 -8.650891762070334884e-07 8.822503454170576187e-07 112.7991788221355023 0 -2.220446049250312588e-16 1 -5.024033337995880611e-10 -13.53153603188754772 -3.004604572229295594e-15 1 I I #
loop $-1 -1 $-1 $-1 $174 $244 #
ellipse-curve $-1 -1 $-1 -8.147924758837230632e-07 8.888524400076346573e-07 59.79956227846610517 0 2.220446049250312588e-16 -1 -5.795037626799660407e-10 -15.60825437324382747 -3.465728675876317038e-15 1 F 1.105735226097124269 F 2.035857395370651357 #
ellipse-curve $-1 -1 $-1 -8.015065535689027157e-07 8.905963833551970221e-07 45.79966457646611389 0 -2.220446049250312588e-16 1 -5.998713213736904727e-10 -16.15682144279799104 -3.587535034110353457e-15 1 F -2.018892431300869816 F -1.122700193954084158 #
point $-1 -1 $-1 -13.95056772390474364 6.999949995400768898 59.79956227846611228 #
coedge $-1 -1 $-1 $248 $214 $218 $249 forward $143 $-1 #
DXID-attrib $-1 -1 $-1 $-1 $144 @10 ASM ENTITY @2 19 #
face $250 -1 $-1 $147 $251 $5 $-1 $252 reversed single #
plane-surface $-1 -1 $-1 -7.869161376139368099e-07 -0.1646205730012323121 12.79990570746611667 0 -2.220446049250312588e-16 1 0 -0.9999926929999998215 -2.220429824451030319e-16 forward_v I I I I #
DXID-attrib $-1 -1 $-1 $-1 $147 @10 ASM ENTITY @2 21 #
face $253 -1 $-1 $254 $186 $5 $-1 $255 forward single #
loop $-1 -1 $-1 $100 $256 $147 #
plane-surface $-1 -1 $-1 -6.67567142825076368e-07 9.127958677078479744e-07 99.99926929999999459 0 2.220446049250312588e-16 -1 0 0.9999926929999998215 2.220429824451030319e-16 forward_v I I I I #
DXID-attrib $-1 -1 $-1 $-1 $152 @10 ASM ENTITY @2 16 #
face $257 -1 $-1 $258 $259 $5 $-1 $260 forward single #
loop $-1 -1 $-1 $-1 $261 $152 #
plane-surface $-1 -1 $-1 -14.99989082415030417 1.144400806121023183e-06 52.79961342746610597 1 0 0 0 0.9999926929999998215 2.220429824451030319e-16 forward_v I I I I #
DXID-attrib $-1 -1 $-1 $-1 $158 @10 ASM ENTITY @1 8 #
face $262 -1 $-1 $263 $264 $5 $-1 $265 reversed single #
loop $-1 -1 $-1 $-1 $266 $158 #
cone-surface $-1 -1 $-1 -8.333509491478672654e-07 14.99989097183675213 12.79990570746612022 1.980851778221661241e-19 2.128523390670288953e-16 -1 0 -2.999978087304631114 -6.38552353032622182e-16 1 I I 0 1 0.9999926929999998215 forward I I I I #
coedge $-1 -1 $-1 $267 $268 $269 $270 reversed $159 $-1 #
coedge $-1 -1 $-1 $218 $161 $271 $272 reversed $120 $-1 #
coedge $-1 -1 $-1 $216 $273 $161 $212 forward $251 $-1 #
edge $-1 -1 $-1 $274 1.670963673194088228 $220 4.612221600037930358 $211 $275 forward @7 unknown #
coedge $-1 -1 $-1 $163 $162 $266 $276 reversed $82 $-1 #
coedge $-1 -1 $-1 $193 $277 $162 $215 forward $143 $-1 #
edge $-1 -1 $-1 $278 -2.941257833758927909 $219 -0.2003348087969896718 $214 $279 forward @7 unknown #
coedge $-1 -1 $-1 $280 $211 $163 $217 forward $251 $-1 #
edge $-1 -1 $-1 $220 0.2003348087969896718 $281 2.941257833758927909 $216 $282 forward @7 unknown #
coedge $-1 -1 $-1 $164 $210 $193 $249 reversed $120 $-1 #
vertex $-1 -1 $-1 $165 $283 #
vertex $-1 -1 $-1 $165 $284 #
straight-curve $-1 -1 $-1 -2.984941186611394404 -14.6998915328785138 12.79990570746611311 1.09846255822591041e-17 7.83195088619680063e-16 -0.9999926929999998215 F 1.776356839427251596e-15 F 12.79999923706055043 #
coedge $-1 -1 $-1 $285 $286 $166 $223 forward $287 $-1 #
edge $-1 -1 $-1 $228 1.570796326794896558 $225 4.712388980384689674 $222 $288 forward @7 unknown #
coedge $-1 -1 $-1 $167 $289 $285 $290 forward $189 $-1 #
vertex $-1 -1 $-1 $168 $291 #
straight-curve $-1 -1 $-1 -13.27605626949880957 -6.999948618452169313 59.79956227846610517 -0.9999926929999976011 -6.868352842354186135e-08 -1.525080693366251102e-23 F -13.27615213394166993 F 0.6745161587627928057 #
coedge $-1 -1 $-1 $292 $169 $286 $293 forward $132 $-1 #
vertex $-1 -1 $-1 $223 $294 #
straight-curve $-1 -1 $-1 -13.27605626949880957 -6.999948618452166649 45.79966457646611389 0.9999926929999976011 6.868352842354186135e-08 1.525080693366251102e-23 F -1.285670335154895039 F 13.27615213394166993 #
point $-1 -1 $-1 -14.56171721026056254 -6.999948706756535799 45.79966457646611389 #
point $-1 -1 $-1 -13.95056749957202769 -6.99994866478031863 59.79956227846610517 #
coedge $-1 -1 $-1 $295 $174 $177 $235 forward $189 $-1 #
straight-curve $-1 -1 $-1 -7.603223747342642724 6.999949153872986329 59.79956227846611228 0.9999926929999912728 -1.325785450564292318e-07 -2.943835065859027963e-23 F -6.347390356943497736 F 7.603278160095403138 #
coedge $-1 -1 $-1 $177 $176 $296 $297 forward $178 $-1 #
edge $-1 -1 $-1 $179 -1.679642280952247546 $298 2.820355869474864718 $232 $299 forward @7 unknown #
face $300 -1 $-1 $183 $178 $5 $-1 $301 reversed single #
point $-1 -1 $-1 -1.14440082388446177e-06 6.999948145841430325 59.79956227846611228 #
coedge $-1 -1 $-1 $181 $292 $261 $302 forward $132 $-1 #
coedge $-1 -1 $-1 $303 $296 $181 $240 reversed $304 $-1 #
edge $-1 -1 $-1 $305 -5.808568677731923202 $241 9.191430607012339493 $181 $306 forward @7 unknown #
vertex $-1 -1 $-1 $297 $307 #
straight-curve $-1 -1 $-1 -1.144400816779086293e-06 5.324874215670866384 45.79966457646611389 0 0.9999926929999998215 2.220429824451030319e-16 F -2.824911980401902056 F 1.675086170025211985 #
DXID-attrib $-1 -1 $-1 $-1 $183 @10 ASM ENTITY @2 25 #
face $308 -1 $-1 $-1 $189 $5 $-1 $309 forward single #
plane-surface $-1 -1 $-1 -10.88278319498385827 0.2683774411123415193 45.79966457646611389 0 2.220446049250312588e-16 -1 0 0.9999926929999998215 2.220429824451030319e-16 forward_v I I I I #
loop $-1 -1 $-1 $-1 $310 $198 #
point $-1 -1 $-1 -13.52056278068087281 -0.5448595300777560047 112.7991788221355023 #
coedge $-1 -1 $-1 $277 $193 $267 $311 forward $143 $-1 #
edge $-1 -1 $-1 $219 1.670963707141658317 $312 4.612221633985495117 $193 $313 forward @7 unknown #
DXID-attrib $-1 -1 $-1 $-1 $195 @10 ASM ENTITY @2 20 #
loop $-1 -1 $-1 $-1 $280 $195 #
plane-surface $-1 -1 $-1 -8.228993255684849747e-07 7.687136791861257599e-07 -3.874649872978323032e-15 0 -2.220446049250312588e-16 1 0 -0.9999926929999998215 -2.220429824451030319e-16 forward_v I I I I #
DXID-attrib $-1 -1 $-1 $-1 $198 @10 ASM ENTITY @2 22 #
face $314 -1 $-1 $236 $287 $5 $-1 $315 reversed single #
plane-surface $-1 -1 $-1 -6.855608666386380373e-07 -0.1276550753801620197 112.7991788221355023 0 -2.220446049250312588e-16 1 0 -0.9999926929999998215 -2.220429824451030319e-16 forward_v I I I I #
coedge $-1 -1 $-1 $316 $317 $318 $319 forward $199 $-1 #
DXID-attrib $-1 -1 $-1 $-1 $202 @10 ASM ENTITY @2 17 #
face $320 -1 $-1 $144 $304 $5 $-1 $321 reversed single #
loop $-1 -1 $-1 $-1 $322 $202 #
plane-surface $-1 -1 $-1 -7.499945984275560029 -2.499980588099193657 52.79961342746610597 0 -1 -2.220446049250312588e-16 0.9999926929999998215 0 0 forward_v I I I I #
coedge $-1 -1 $-1 $323 $324 $238 $302 reversed $203 $-1 #
DXID-attrib $-1 -1 $-1 $-1 $206 @10 ASM ENTITY @1 9 #
face $325 -1 $-1 $326 $327 $5 $-1 $328 forward single #
loop $-1 -1 $-1 $-1 $329 $206 #
cone-surface $-1 -1 $-1 -3.502904758758650202e-07 7.377056218231197281e-07 99.99926929999999459 -8.937054799393556341e-16 1.833524851369430067e-16 -1 0 -12.4999090466420899 -2.291889387687583201e-15 1 I I 0 1 0.9999926929999998215 forward I I I I #
coedge $-1 -1 $-1 $330 $331 $213 $276 forward $207 $-1 #
coedge $-1 -1 $-1 $271 $209 $248 $311 reversed $159 $-1 #
coedge $-1 -1 $-1 $209 $271 $273 $332 reversed $159 $-1 #
coedge $-1 -1 $-1 $331 $330 $209 $270 forward $207 $-1 #
edge $-1 -1 $-1 $333 -1.776356839400919024e-15 $334 12.7999992370605451 $269 $335 forward @7 unknown #
coedge $-1 -1 $-1 $268 $267 $210 $272 forward $159 $-1 #
edge $-1 -1 $-1 $312 -5.329070518200751394e-15 $274 12.79999923706054332 $271 $336 forward @7 unknown #
coedge $-1 -1 $-1 $211 $280 $268 $332 forward $251 $-1 #
vertex $-1 -1 $-1 $212 $337 #
ellipse-curve $-1 -1 $-1 -8.333509065156145102e-07 -14.99988920290481076 -1.608701381344941143e-14 0 -2.220446049250312588e-16 1 0 -2.999977919009411576 -2.349585140554281747e-15 1 F 1.670963673194088228 F 4.612221600037930358 #
edge $-1 -1 $-1 $281 -12.79999923706054688 $278 1.576372781137211311e-28 $266 $338 forward @7 unknown #
coedge $-1 -1 $-1 $214 $248 $330 $339 forward $143 $-1 #
vertex $-1 -1 $-1 $215 $340 #
ellipse-curve $-1 -1 $-1 -1.237735003503850398e-06 8.664507082485096269e-07 12.79990570746611667 0 -2.220446049250312588e-16 1 0 -14.99989010127258204 -3.335063286365106838e-15 1 F -2.941257833758927909 F -0.2003348087969896718 #
coedge $-1 -1 $-1 $273 $216 $331 $341 forward $251 $-1 #
vertex $-1 -1 $-1 $276 $342 #
ellipse-curve $-1 -1 $-1 -1.237735003503850398e-06 8.664507118011972595e-07 -3.874649851276341433e-15 0 2.220446049250312588e-16 -1 0 -14.99989010127258204 -3.335063286365106838e-15 1 F 0.2003348087969896718 F 2.941257833758927909 #
point $-1 -1 $-1 -2.984941186645576394 -14.69989153282972794 12.79990570746610956 #
point $-1 -1 $-1 -2.984941186645576394 -14.69989153282972794 -1.128348399049029536e-14 #
coedge $-1 -1 $-1 $343 $222 $224 $290 reversed $287 $-1 #
coedge $-1 -1 $-1 $222 $343 $227 $293 reversed $287 $-1 #
loop $-1 -1 $-1 $-1 $286 $254 #
ellipse-curve $-1 -1 $-1 -1.144400816779086293e-06 -6.999947706599193076 52.79961342746610597 -1 0 0 0 6.99994885100001607 1.55430087711572502e-15 0.9999999999999975575 F 1.570796326794896558 F 4.712388980384689674 #
coedge $-1 -1 $-1 $224 $344 $345 $346 forward $189 $-1 #
edge $-1 -1 $-1 $347 -2.561090128762380402 $225 1.938909871237619598 $224 $348 forward @7 unknown #
point $-1 -1 $-1 -1.144400816779086293e-06 -6.999947706599196628 59.79956227846610517 #
coedge $-1 -1 $-1 $238 $227 $322 $349 forward $132 $-1 #
edge $-1 -1 $-1 $228 -1.943465982164653383 $350 2.556534017835346617 $227 $351 forward @7 unknown #
point $-1 -1 $-1 -1.144400816779086293e-06 -6.999947706599193076 45.79966457646611389 #
coedge $-1 -1 $-1 $344 $232 $352 $353 forward $189 $-1 #
coedge $-1 -1 $-1 $239 $352 $234 $297 reversed $304 $-1 #
edge $-1 -1 $-1 $241 -7.00000036330450115 $298 6.99999963669549885 $234 $354 forward @7 unknown #
vertex $-1 -1 $-1 $353 $355 #
straight-curve $-1 -1 $-1 -1.144400816779086293e-06 5.320318138035330158 59.79956227846611228 0 -0.9999926929999998215 -2.220429824451030319e-16 F -1.679642280952247546 F 2.820355869474864718 #
DXID-attrib $-1 -1 $-1 $-1 $236 @10 ASM ENTITY @2 24 #
plane-surface $-1 -1 $-1 -1.144400816779086293e-06 10.38137099022939225 52.79961415406980763 1 0 0 0 0.9999926929999998215 2.220429824451030319e-16 forward_v I I I I #
edge $-1 -1 $-1 $356 -2.634189128875732422 $305 2.365810871124267578 $238 $357 forward @7 unknown #
coedge $-1 -1 $-1 $352 $239 $324 $358 forward $304 $-1 #
loop $-1 -1 $-1 $-1 $303 $258 #
vertex $-1 -1 $-1 $302 $359 #
straight-curve $-1 -1 $-1 -9.191364589629708703 2.499982876900805451 45.79966457646611389 0.9999926929999998215 0 0 F -5.808568677731923202 F 9.191430607012339493 #
point $-1 -1 $-1 -1.144400816779086293e-06 2.499982876900805451 45.79966457646611389 #
DXID-attrib $-1 -1 $-1 $-1 $244 @10 ASM ENTITY @2 26 #
plane-surface $-1 -1 $-1 -10.56936163020784747 0.2592652858412684003 59.79956227846610517 0 2.220446049250312588e-16 -1 0 0.9999926929999998215 2.220429824451030319e-16 forward_v I I I I #
coedge $-1 -1 $-1 $360 $361 $362 $363 forward $246 $-1 #
edge $-1 -1 $-1 $312 0.2003348282438399686 $333 2.941257814317708164 $248 $364 forward @7 unknown #
vertex $-1 -1 $-1 $272 $365 #
ellipse-curve $-1 -1 $-1 -8.333509065156145102e-07 -14.99988920290481786 12.79990570746610423 0 2.220446049250312588e-16 -1 0 -2.999977919009411576 -2.349585140554281747e-15 1 F 1.670963707141658317 F 4.612221633985495117 #
DXID-attrib $-1 -1 $-1 $-1 $254 @10 ASM ENTITY @2 23 #
plane-surface $-1 -1 $-1 -1.144400816779086293e-06 -10.3813692917932805 52.79961415406980052 1 0 0 0 0.9999926929999998215 2.220429824451030319e-16 forward_v I I I I #
coedge $-1 -1 $-1 $366 $256 $367 $368 forward $199 $-1 #
coedge $-1 -1 $-1 $256 $366 $369 $370 forward $199 $-1 #
coedge $-1 -1 $-1 $371 $372 $256 $319 reversed $327 $-1 #
edge $-1 -1 $-1 $373 1.691086071007290803 $374 4.592099308576855776 $256 $375 forward @7 unknown #
DXID-attrib $-1 -1 $-1 $-1 $258 @10 ASM ENTITY @2 18 #
plane-surface $-1 -1 $-1 -7.499945984275560029 2.499982876900804118 52.79961342746611308 0 -1 -2.220446049250312588e-16 0.9999926929999998215 0 0 forward_v I I I I #
coedge $-1 -1 $-1 $376 $377 $292 $349 reversed $259 $-1 #
coedge $-1 -1 $-1 $378 $261 $377 $379 reversed $203 $-1 #
coedge $-1 -1 $-1 $261 $378 $303 $358 reversed $203 $-1 #
DXID-attrib $-1 -1 $-1 $-1 $263 @10 ASM ENTITY @2 10 #
face $380 -1 $-1 $381 $382 $5 $-1 $383 reversed single #
loop $-1 -1 $-1 $-1 $371 $263 #
cone-surface $-1 -1 $-1 -7.840131547668248532e-07 -12.49990780247714284 99.99926929999999459 9.614764277132842319e-19 2.094041528205823261e-16 -1 0 -2.999977979922503923 -6.282078473660739986e-16 1 I I 0 1 0.9999926929999998215 forward I I I I #
coedge $-1 -1 $-1 $384 $369 $385 $386 reversed $264 $-1 #
coedge $-1 -1 $-1 $269 $266 $277 $339 reversed $207 $-1 #
coedge $-1 -1 $-1 $266 $269 $280 $341 reversed $207 $-1 #
edge $-1 -1 $-1 $334 -2.941257814317708164 $274 -0.2003348282438404127 $273 $387 forward @7 unknown #
vertex $-1 -1 $-1 $270 $388 #
vertex $-1 -1 $-1 $270 $389 #
straight-curve $-1 -1 $-1 2.984939692304414027 14.69989333416564747 12.79990570746611667 1.980837304137717501e-19 2.128507837549873063e-16 -0.9999926929999998215 F -1.776356839400919024e-15 F 12.7999992370605451 #
straight-curve $-1 -1 $-1 2.984939530093040805 -14.69989163420270195 12.79990570746610601 0 2.220429824451030319e-16 -0.9999926929999998215 F -5.329070518200751394e-15 F 12.79999923706054332 #
point $-1 -1 $-1 2.984939530116872408 -14.69989163416230049 -1.128348401299064679e-14 #
straight-curve $-1 -1 $-1 -2.984941348822852447 14.69989323284149485 12.79990570746612022 -1.980837304137717501e-19 -2.128507837549873063e-16 0.9999926929999998215 F -12.79999923706054688 F 1.576372781137211311e-28 #
edge $-1 -1 $-1 $333 -1.470628962962687636 $278 1.470628929002210095 $277 $390 forward @7 unknown #
point $-1 -1 $-1 -2.984941348854999177 14.69989323285794924 12.79990570746612022 #
edge $-1 -1 $-1 $281 -1.470628929002210095 $334 1.470628962962687636 $280 $391 forward @7 unknown #
point $-1 -1 $-1 -2.984941348854999177 14.6998932328579528 -6.106180583369632815e-16 #
coedge $-1 -1 $-1 $286 $285 $376 $392 forward $287 $-1 #
coedge $-1 -1 $-1 $289 $295 $378 $393 forward $189 $-1 #
coedge $-1 -1 $-1 $377 $376 $289 $346 reversed $259 $-1 #
edge $-1 -1 $-1 $394 -5.965280605213983733 $347 9.034718679530278962 $289 $395 forward @7 unknown #
vertex $-1 -1 $-1 $392 $396 #
straight-curve $-1 -1 $-1 -1.144400816779086293e-06 -5.061052002976006214 59.79956227846610517 0 -0.9999926929999998215 -2.220429824451030319e-16 F -2.561090128762380402 F 1.938909871237619598 #
edge $-1 -1 $-1 $350 -9.191430607012339493 $356 5.808568677731923202 $292 $397 forward @7 unknown #
vertex $-1 -1 $-1 $349 $398 #
straight-curve $-1 -1 $-1 -1.144400816779086293e-06 -5.056495925340471764 45.79966457646611389 0 0.9999926929999998215 2.220429824451030319e-16 F -1.943465982164653383 F 2.556534017835346617 #
coedge $-1 -1 $-1 $296 $303 $295 $353 reversed $304 $-1 #
edge $-1 -1 $-1 $298 -9.034718679530278962 $399 5.965280605213983733 $295 $400 forward @7 unknown #
straight-curve $-1 -1 $-1 -1.144400816779086293e-06 2.499982876900804118 52.7996137907679568 0 -2.220429824451030319e-16 0.9999926929999998215 F -7.00000036330450115 F 6.99999963669549885 #
point $-1 -1 $-1 -1.144400816779086293e-06 2.499982876900804118 59.79956227846611228 #
vertex $-1 -1 $-1 $302 $401 #
straight-curve $-1 -1 $-1 -14.99989082415030417 0.1341892927565738192 45.79966457646611389 0 0.9999926929999998215 2.220429824451030319e-16 F -2.634189128875732422 F 2.365810871124267578 #
edge $-1 -1 $-1 $305 -7 $399 7 $303 $402 forward @7 unknown #
point $-1 -1 $-1 -14.99989082415030417 2.499982876900805451 45.79966457646611389 #
coedge $-1 -1 $-1 $403 $310 $404 $405 forward $246 $-1 #
coedge $-1 -1 $-1 $310 $403 $384 $406 forward $246 $-1 #
coedge $-1 -1 $-1 $385 $407 $310 $363 reversed $408 $-1 #
edge $-1 -1 $-1 $409 -1.450506669485275513 $410 1.450506741929749488 $310 $411 forward @7 unknown #
ellipse-curve $-1 -1 $-1 -7.370238468390694543e-07 8.664506798270078255e-07 12.79990570746611667 0 -2.220446049250312588e-16 1 0 -14.99989026389931723 -3.330644707566346714e-15 1 F 0.2003348282438399686 F 2.941257814317708164 #
point $-1 -1 $-1 2.984939530116865303 -14.69989163416230049 12.79990570746610956 #
coedge $-1 -1 $-1 $317 $316 $412 $413 forward $199 $-1 #
coedge $-1 -1 $-1 $414 $415 $316 $368 reversed $382 $-1 #
edge $-1 -1 $-1 $374 0.2405797826752198443 $416 2.901012889531473959 $316 $417 forward @7 unknown #
coedge $-1 -1 $-1 $329 $418 $317 $370 reversed $264 $-1 #
edge $-1 -1 $-1 $419 -2.901012883226669725 $373 -0.2405797889670080736 $317 $420 forward @7 unknown #
coedge $-1 -1 $-1 $421 $318 $418 $422 forward $327 $-1 #
coedge $-1 -1 $-1 $318 $421 $414 $423 reversed $327 $-1 #
vertex $-1 -1 $-1 $422 $424 #
vertex $-1 -1 $-1 $423 $425 #
ellipse-curve $-1 -1 $-1 -7.840131547668248532e-07 -12.49990780247714284 99.99926929999999459 0 2.220446049250312588e-16 -1 0 -2.999977979922503923 -6.282078473660739986e-16 1 F 1.691086071007290803 F 4.592099308576855776 #
coedge $-1 -1 $-1 $345 $322 $343 $392 reversed $259 $-1 #
coedge $-1 -1 $-1 $322 $345 $323 $379 forward $259 $-1 #
coedge $-1 -1 $-1 $324 $323 $344 $393 reversed $203 $-1 #
edge $-1 -1 $-1 $394 -7 $356 7 $377 $426 forward @7 unknown #
DXID-attrib $-1 -1 $-1 $-1 $326 @10 ASM ENTITY @2 11 #
face $427 -1 $-1 $77 $408 $5 $-1 $428 forward single #
loop $-1 -1 $-1 $-1 $367 $326 #
cone-surface $-1 -1 $-1 -1.163572814343508732e-06 7.377056147177443572e-07 99.99926929999999459 1.105672828375046461e-16 2.218538072270721726e-16 -1 0 -12.49990924941223014 -2.773152456974997349e-15 1 I I 0 1 0.9999926929999998215 forward I I I I #
coedge $-1 -1 $-1 $418 $329 $361 $406 reversed $264 $-1 #
coedge $-1 -1 $-1 $412 $362 $329 $386 forward $408 $-1 #
edge $-1 -1 $-1 $409 -12.8000030517578125 $419 0 $385 $429 forward @7 unknown #
ellipse-curve $-1 -1 $-1 -7.370238468390694543e-07 8.664506833796956698e-07 -3.874649851276347744e-15 0 2.220446049250312588e-16 -1 0 -14.99989026389931723 -3.330644707566346714e-15 1 F -2.941257814317708164 F -0.2003348282438404127 #
point $-1 -1 $-1 2.984939692249595655 14.69989333423716005 12.79990570746612022 #
point $-1 -1 $-1 2.984939692249595655 14.69989333423716182 -6.106180358262570626e-16 #
ellipse-curve $-1 -1 $-1 -8.333509491478672654e-07 14.99989097183675213 12.79990570746612022 0 2.220446049250312588e-16 -1 0 -2.999978087304631114 -6.38552353032622182e-16 1 F -1.470628962962687636 F 1.470628929002210095 #
ellipse-curve $-1 -1 $-1 -8.333509491478672654e-07 14.99989097183675391 -5.440051789070129211e-16 0 -2.220446049250312588e-16 1 0 -2.999978087304631114 -6.38552353032622182e-16 1 F -1.470628929002210095 F 1.470628962962687636 #
edge $-1 -1 $-1 $347 -6.99999963669549885 $350 7.00000036330450115 $343 $430 forward @7 unknown #
edge $-1 -1 $-1 $399 -2.370366982051304916 $394 2.629633017948695084 $344 $431 forward @7 unknown #
vertex $-1 -1 $-1 $379 $432 #
straight-curve $-1 -1 $-1 -9.034653807241703305 -2.49998058809919721 59.79956227846610517 0.9999926929999998215 0 0 F -5.965280605213983733 F 9.034718679530278962 #
point $-1 -1 $-1 -1.144400816779086293e-06 -2.49998058809919721 59.79956227846610517 #
straight-curve $-1 -1 $-1 -9.191364589629708703 -2.499980588099193657 45.79966457646611389 -0.9999926929999998215 0 0 F -9.191430607012339493 F 5.808568677731923202 #
point $-1 -1 $-1 -1.144400816779086293e-06 -2.499980588099193657 45.79966457646611389 #
vertex $-1 -1 $-1 $393 $433 #
straight-curve $-1 -1 $-1 -9.034653807241703305 2.499982876900804118 59.79956227846611228 -0.9999926929999998215 0 0 F -9.034718679530278962 F 5.965280605213983733 #
point $-1 -1 $-1 -14.99989082415030417 -2.499980588099193657 45.79966457646611389 #
straight-curve $-1 -1 $-1 -14.99989082415030417 2.499982876900804118 52.79961342746611308 0 -2.220429824451030319e-16 0.9999926929999998215 F -7 F 7 #
coedge $-1 -1 $-1 $361 $360 $421 $434 forward $246 $-1 #
coedge $-1 -1 $-1 $415 $414 $360 $405 reversed $382 $-1 #
edge $-1 -1 $-1 $410 -2.901012889531473959 $435 -0.2405797826752198443 $360 $436 forward @7 unknown #
edge $-1 -1 $-1 $437 0.2405797889670089618 $409 2.901012883226668837 $361 $438 forward @7 unknown #
coedge $-1 -1 $-1 $362 $412 $415 $439 forward $408 $-1 #
loop $-1 -1 $-1 $-1 $412 $381 #
vertex $-1 -1 $-1 $386 $440 #
vertex $-1 -1 $-1 $405 $441 #
ellipse-curve $-1 -1 $-1 -7.840130588442565513e-07 12.49990904327361818 112.7991788221355023 0 -2.220446049250312588e-16 1 0 -2.999977720777905255 -6.661288677940257609e-16 1 F -1.450506669485275513 F 1.450506741929749488 #
coedge $-1 -1 $-1 $407 $385 $366 $413 reversed $408 $-1 #
edge $-1 -1 $-1 $416 -1.450506741929749488 $419 1.450506669485275957 $366 $442 forward @7 unknown #
coedge $-1 -1 $-1 $404 $367 $372 $423 forward $382 $-1 #
coedge $-1 -1 $-1 $367 $404 $407 $439 reversed $382 $-1 #
vertex $-1 -1 $-1 $368 $443 #
ellipse-curve $-1 -1 $-1 -1.163572814343508732e-06 7.377056147177443572e-07 99.99926929999999459 0 -2.220446049250312588e-16 1 0 -12.49990924941223014 -2.773152456974997349e-15 1 F 0.2405797826752198443 F 2.901012889531473959 #
coedge $-1 -1 $-1 $369 $384 $371 $422 reversed $264 $-1 #
vertex $-1 -1 $-1 $386 $444 #
ellipse-curve $-1 -1 $-1 -3.502904758758650202e-07 7.377056218231197281e-07 99.99926929999999459 0 -2.220446049250312588e-16 1 0 -12.4999090466420899 -2.291889387687583201e-15 1 F -2.901012883226669725 F -0.2405797889670080736 #
coedge $-1 -1 $-1 $372 $371 $403 $434 reversed $327 $-1 #
edge $-1 -1 $-1 $373 -9.327784831668772718e-28 $437 12.8000030517578125 $371 $445 forward @7 unknown #
edge $-1 -1 $-1 $374 3.012517238951716247e-27 $435 12.8000030517578125 $414 $446 forward @7 unknown #
point $-1 -1 $-1 -2.978300647785302679 -12.13991085644143908 99.99926929999999459 #
point $-1 -1 $-1 2.978299105846238692 -12.13991107208128994 99.99926929999999459 #
straight-curve $-1 -1 $-1 -14.99989082415030417 -2.499980588099193657 52.79961342746610597 0 2.220429824451030319e-16 -0.9999926929999998215 F -7 F 7 #
DXID-attrib $-1 -1 $-1 $-1 $381 @10 ASM ENTITY @2 12 #
cone-surface $-1 -1 $-1 -7.840130588442565513e-07 12.49990904327362173 99.99926929999999459 0 2.220446049250312588e-16 -1 0 -2.999977720777905255 -6.661288677940257609e-16 1 I I 0 1 0.9999926929999998215 forward I I I I #
straight-curve $-1 -1 $-1 -2.978300421859143565 12.13991238722016242 99.99926929999999459 0 2.220429824451030319e-16 -0.9999926929999998215 F -12.8000030517578125 F 0 #
straight-curve $-1 -1 $-1 -1.144400816779086293e-06 -2.499980588099193657 52.79961379076794969 0 2.220429824451030319e-16 -0.9999926929999998215 F -6.99999963669549885 F 7.00000036330450115 #
straight-curve $-1 -1 $-1 -14.99989082415030417 0.1296332151210354833 59.79956227846610517 0 -0.9999926929999998215 -2.220429824451030319e-16 F -2.370366982051304916 F 2.629633017948695084 #
point $-1 -1 $-1 -14.99989082415030417 -2.49998058809919721 59.79956227846610517 #
point $-1 -1 $-1 -14.99989082415030417 2.499982876900804118 59.79956227846611228 #
edge $-1 -1 $-1 $435 1.6910859986027309 $437 4.592099236172295207 $403 $447 forward @7 unknown #
vertex $-1 -1 $-1 $434 $448 #
ellipse-curve $-1 -1 $-1 -1.163572814343508732e-06 7.377056111650566188e-07 112.7991788221355023 0 2.220446049250312588e-16 -1 0 -12.49990924941223014 -2.773152456974997349e-15 1 F -2.901012889531473959 F -0.2405797826752198443 #
vertex $-1 -1 $-1 $406 $449 #
ellipse-curve $-1 -1 $-1 -3.502904652178018579e-07 7.377056182704320956e-07 112.7991788221355023 0 2.220446049250312588e-16 -1 0 -12.4999090466420899 -2.291889387687583201e-15 1 F 0.2405797889670089618 F 2.901012883226668837 #
edge $-1 -1 $-1 $416 0 $410 12.8000030517578125 $407 $450 forward @7 unknown #
point $-1 -1 $-1 -2.978300421907300599 12.1399123871445056 112.7991788221355023 #
point $-1 -1 $-1 2.978298879834275326 12.13991260292116792 112.7991788221355023 #
ellipse-curve $-1 -1 $-1 -7.840130588442565513e-07 12.49990904327362173 99.99926929999999459 0 2.220446049250312588e-16 -1 0 -2.999977720777905255 -6.661288677940257609e-16 1 F -1.450506741929749488 F 1.450506669485275957 #
point $-1 -1 $-1 2.978298879834275326 12.13991260292116969 99.99926929999999459 #
point $-1 -1 $-1 -2.978300421907300599 12.13991238714450915 99.99926929999999459 #
straight-curve $-1 -1 $-1 -2.978300647830463888 -12.13991085637108114 99.99926929999999459 -9.614694022050267373e-19 -2.094026227044376244e-16 0.9999926929999998215 F -9.327784831668772718e-28 F 12.8000030517578125 #
straight-curve $-1 -1 $-1 2.97829910587354485 -12.13991107204643605 99.99926929999999459 -1.105664749223689341e-16 -2.218521861413027047e-16 0.9999926929999998215 F 3.012517238951716247e-27 F 12.8000030517578125 #
ellipse-curve $-1 -1 $-1 -7.840131547668248532e-07 -12.49990780247714639 112.7991788221355023 0 -2.220446049250312588e-16 1 0 -2.999977979922503923 -6.282078473660739986e-16 1 F 1.6910859986027309 F 4.592099236172295207 #
point $-1 -1 $-1 2.978299105846238692 -12.13991107208129527 112.7991788221355023 #
point $-1 -1 $-1 -2.978300647785302679 -12.13991085644144263 112.7991788221355023 #
straight-curve $-1 -1 $-1 2.978298879902387508 12.13991260289545338 99.99926929999999459 0 -2.220429824451030319e-16 0.9999926929999998215 F 0 F 12.8000030517578125 #
End-of-ACIS-data 